<svg width="139" height="80" viewBox="0 0 139 80" fill="none" xmlns="http://www.w3.org/2000/svg">
<path d="M62.5388 4.47449L70.0782 66.8828C70.3457 69.0938 71.9223 70.931 74.0782 71.5435L98.2644 78.4083C99.2423 78.6855 100.278 78.6924 101.26 78.4262L126.697 71.5352C128.924 70.9324 130.544 69.029 130.773 66.7476L137.048 4.4207C137.212 2.79173 135.925 1.37932 134.277 1.37932H65.303C63.634 1.37932 62.3388 2.82897 62.5388 4.47449Z" fill="#F6D397"/>
<path d="M127.838 8.27586H99.7595V71.7241C100.171 71.7269 100.58 71.6703 100.98 71.5545L121.673 65.5255C123.484 64.9986 124.802 63.3324 124.988 61.3366L130.093 10.9379C130.226 9.51173 129.179 8.27586 127.838 8.27586Z" fill="#F9E3AE"/>
<path d="M99.794 80C99.1526 80 98.5112 79.9117 97.8878 79.7366L73.7002 72.8703C71.0023 72.1035 69.0423 69.8179 68.7085 67.0483L61.1678 4.64C61.0257 3.46759 61.3954 2.28828 62.1788 1.40276C62.9705 0.511724 64.1085 0 65.303 0H134.278C135.456 0 136.584 0.500689 137.373 1.37241C138.155 2.23862 138.539 3.4 138.422 4.56L132.146 66.8855C131.862 69.7145 129.817 72.1186 127.059 72.8662L101.622 79.7572C101.023 79.9186 100.409 80 99.794 80ZM65.303 2.75862C64.8919 2.75862 64.5168 2.9269 64.245 3.2331C63.9802 3.53241 63.8602 3.91448 63.9085 4.30897L71.4492 66.7172C71.6505 68.3807 72.8299 69.7545 74.4561 70.2166L98.6423 77.0814C99.3774 77.291 100.164 77.2952 100.9 77.0938L126.337 70.2028C128 69.7531 129.231 68.3076 129.402 66.6097L135.677 4.28276C135.715 3.89103 135.591 3.51448 135.328 3.22207C135.056 2.92276 134.682 2.75862 134.277 2.75862H65.303Z" fill="#4D4D4D"/>
<path d="M134.242 11.0345C133.48 11.0345 132.863 10.4166 132.863 9.65517V6.89655C132.863 6.13517 133.48 5.51724 134.242 5.51724C135.005 5.51724 135.622 6.13517 135.622 6.89655V9.65517C135.622 10.4166 135.005 11.0345 134.242 11.0345ZM127.346 11.0345C126.583 11.0345 125.966 10.4166 125.966 9.65517V6.89655C125.966 6.13517 126.583 5.51724 127.346 5.51724C128.108 5.51724 128.725 6.13517 128.725 6.89655V9.65517C128.725 10.4166 128.108 11.0345 127.346 11.0345ZM120.449 11.0345C119.686 11.0345 119.07 10.4166 119.07 9.65517V6.89655C119.07 6.13517 119.686 5.51724 120.449 5.51724C121.212 5.51724 121.828 6.13517 121.828 6.89655V9.65517C121.828 10.4166 121.212 11.0345 120.449 11.0345ZM113.553 11.0345C112.79 11.0345 112.173 10.4166 112.173 9.65517V6.89655C112.173 6.13517 112.79 5.51724 113.553 5.51724C114.315 5.51724 114.932 6.13517 114.932 6.89655V9.65517C114.932 10.4166 114.315 11.0345 113.553 11.0345ZM106.656 11.0345C105.893 11.0345 105.277 10.4166 105.277 9.65517V6.89655C105.277 6.13517 105.893 5.51724 106.656 5.51724C107.419 5.51724 108.035 6.13517 108.035 6.89655V9.65517C108.035 10.4166 107.419 11.0345 106.656 11.0345ZM99.7595 11.0345C98.9968 11.0345 98.3802 10.4166 98.3802 9.65517V6.89655C98.3802 6.13517 98.9968 5.51724 99.7595 5.51724C100.522 5.51724 101.139 6.13517 101.139 6.89655V9.65517C101.139 10.4166 100.522 11.0345 99.7595 11.0345ZM92.863 11.0345C92.1002 11.0345 91.4837 10.4166 91.4837 9.65517V6.89655C91.4837 6.13517 92.1002 5.51724 92.863 5.51724C93.6257 5.51724 94.2423 6.13517 94.2423 6.89655V9.65517C94.2423 10.4166 93.6257 11.0345 92.863 11.0345ZM85.9664 11.0345C85.2037 11.0345 84.5871 10.4166 84.5871 9.65517V6.89655C84.5871 6.13517 85.2037 5.51724 85.9664 5.51724C86.7292 5.51724 87.3457 6.13517 87.3457 6.89655V9.65517C87.3457 10.4166 86.7292 11.0345 85.9664 11.0345ZM79.0699 11.0345C78.3071 11.0345 77.6906 10.4166 77.6906 9.65517V6.89655C77.6906 6.13517 78.3071 5.51724 79.0699 5.51724C79.8326 5.51724 80.4492 6.13517 80.4492 6.89655V9.65517C80.4492 10.4166 79.8326 11.0345 79.0699 11.0345ZM72.1733 11.0345C71.4106 11.0345 70.794 10.4166 70.794 9.65517V6.89655C70.794 6.13517 71.4106 5.51724 72.1733 5.51724C72.9361 5.51724 73.5526 6.13517 73.5526 6.89655V9.65517C73.5526 10.4166 72.9361 11.0345 72.1733 11.0345ZM65.2768 11.0345C64.514 11.0345 63.8975 10.4166 63.8975 9.65517V6.89655C63.8975 6.13517 64.514 5.51724 65.2768 5.51724C66.0395 5.51724 66.6561 6.13517 66.6561 6.89655V9.65517C66.6561 10.4166 66.0395 11.0345 65.2768 11.0345Z" fill="#4D4D4D"/>
<path d="M88.725 20.6897C88.725 32.1834 88.725 43.6786 88.725 55.1724C84.5871 54.2524 80.4491 53.3338 76.3112 52.4138C76.594 55.1724 76.8767 57.931 77.1595 60.6896C83.314 62.4441 89.4671 64.1972 95.6216 65.9517V20.6897C93.3223 20.6897 91.0243 20.6897 88.725 20.6897Z" fill="#FAEFDE"/>
<path d="M124.34 27.6524L124.94 20.6897C117.926 20.6897 110.911 20.6897 103.897 20.6897C103.897 30.8041 103.897 40.92 103.897 51.0345C108.011 50.0841 112.124 49.1338 116.237 48.1848L115.801 54.7131C111.834 55.7848 107.866 56.8579 103.897 57.931C103.897 60.6897 103.897 63.4483 103.897 66.2069C109.751 64.5255 115.605 62.8455 121.459 61.1641L123.293 39.8386C119.128 40.3517 114.961 40.8662 110.794 41.3793C110.794 36.7821 110.794 32.1834 110.794 27.5862C115.31 27.6083 119.824 27.6303 124.34 27.6524Z" fill="#FAEFDE"/>
<path d="M95.6216 67.331C95.4947 67.331 95.3678 67.3131 95.2437 67.2786L76.7816 62.0166C76.2382 61.8621 75.845 61.3917 75.7871 60.8304L74.9388 52.5545C74.8947 52.1131 75.0644 51.6772 75.394 51.3835C75.7264 51.0883 76.1761 50.971 76.6106 51.0676L87.3457 53.4524V20.6897C87.3457 19.9283 87.9623 19.3103 88.725 19.3103H95.6216C96.3844 19.3103 97.0009 19.9283 97.0009 20.6897V65.9517C97.0009 66.3835 96.7982 66.7917 96.4533 67.0524C96.2106 67.2359 95.9182 67.331 95.6216 67.331ZM78.4368 59.6193L94.2423 64.1241V22.069H90.1044V55.1724C90.1044 55.5904 89.914 55.9862 89.5885 56.2483C89.2616 56.5104 88.8354 56.6097 88.4257 56.5186L77.8782 54.1752L78.4368 59.6193Z" fill="#4D4D4D"/>
<path d="M103.897 67.5862C103.601 67.5862 103.31 67.491 103.067 67.309C102.721 67.0483 102.518 66.64 102.518 66.2069V57.931C102.518 57.3076 102.936 56.7614 103.537 56.6L114.489 53.6386L114.736 49.9462L104.206 52.3779C103.802 52.4759 103.369 52.3766 103.038 52.1145C102.707 51.8524 102.518 51.4552 102.518 51.0345V20.6897C102.518 19.9283 103.135 19.3103 103.897 19.3103H124.942C125.328 19.3103 125.697 19.4731 125.958 19.7572C126.219 20.0428 126.348 20.4235 126.315 20.8083L125.714 27.771C125.653 28.4869 124.995 29.0759 124.333 29.0317L112.173 28.9724V39.8193L123.125 38.469C123.533 38.4193 123.951 38.5559 124.251 38.8441C124.55 39.1324 124.703 39.5407 124.667 39.9559L122.833 61.2814C122.784 61.851 122.388 62.331 121.84 62.4883L104.278 67.5297C104.154 67.5683 104.026 67.5862 103.897 67.5862ZM105.277 58.9876V64.3766L120.166 60.1007L121.773 41.4166L110.962 42.749C110.575 42.7959 110.177 42.6745 109.881 42.4124C109.584 42.1503 109.415 41.7752 109.415 41.3793V27.5862C109.415 27.2193 109.561 26.8676 109.822 26.6083C110.082 26.349 110.391 26.2138 110.801 26.2069L123.075 26.2676L123.438 22.069H105.277V49.3007L115.928 46.8414C116.351 46.7407 116.8 46.851 117.132 47.1352C117.464 47.4179 117.642 47.8414 117.615 48.2772L117.179 54.8055C117.14 55.3931 116.731 55.891 116.162 56.0441L105.277 58.9876Z" fill="#4D4D4D"/>
<path d="M2 11.0345L53.8966 11.0345" stroke="#4D4D4D" stroke-width="3" stroke-linecap="round"/>
<path d="M16.4 37.4138L57.6069 37.4138" stroke="#4D4D4D" stroke-width="3" stroke-linecap="round"/>
<path d="M34 63.6207L61.2414 63.6207" stroke="#4D4D4D" stroke-width="3" stroke-linecap="round"/>
</svg>
